<svg id="lyft" xmlns="http://www.w3.org/2000/svg" width="36.74" height="26" viewBox="0 0 36.74 26"><title>lyft</title><path id="logo_standard" data-name="logo standard" d="M0,.45H5.58v15a5.21,5.21,0,0,0,1.94,4.39,4.82,4.82,0,0,1-5.75-.2A5.5,5.5,0,0,1,0,15.37ZM34.86,12.89V11.32h1.7V5.8H34.7A7.36,7.36,0,0,0,20.14,7.36V20.25a4.7,4.7,0,0,0,3.71-1A5.51,5.51,0,0,0,25.62,15v-.47h2.79V9H25.62V7.36h0a1.87,1.87,0,0,1,3.74,0v5.53a7.37,7.37,0,0,0,7.37,7.36V14.76A1.88,1.88,0,0,1,34.86,12.89ZM13.74,5.8v8.1a.85.85,0,0,1-.86.83A.84.84,0,0,1,12,13.9V5.8H6.51v9.52c0,1.72.58,3.89,3.23,4.59a4.49,4.49,0,0,0,4.18-.75c-.14,1-1.05,1.66-2.51,1.82a7.58,7.58,0,0,1-3.22-.56v5a11.75,11.75,0,0,0,5.56.34c3.37-.66,5.5-3.48,5.5-7.23V5.8Z" style="fill:#a1a7b3"/></svg>