<svg width="327" height="254" viewBox="0 0 327 254" fill="none" xmlns="http://www.w3.org/2000/svg">
<path fill-rule="evenodd" clip-rule="evenodd" d="M0 136.217C22.5612 111.881 43.1933 83.4513 56.6394 64.9235L56.6395 64.9234L56.6535 64.9042C57.8023 63.3212 58.8986 61.8106 59.9391 60.381C71.9107 42.8511 80.0842 29.3244 81.79 25.433C86.0012 15.8226 90.5144 8.66967 95.0188 5.3626C99.5942 2.00165 104.347 0.0621631 110.073 0.00414431L110.095 0H110.38C135.682 0 140.6 26.7881 129.006 65.9923C113.192 119.892 104.054 156.481 104.054 179.025C104.054 182.353 104.236 185.3 104.583 187.898C106.035 198.831 110.389 203.53 116.354 203.53C118.469 203.53 120.468 202.888 122.56 201.607C125.687 199.688 129.015 196.336 133.221 191.441C148.333 173.8 165.907 148.317 181.721 119.569C187.072 109.81 191.701 101.396 195.729 94.0724L195.758 94.0214C205.469 76.3666 211.692 65.0547 216.161 56.5145C223.539 42.4698 229.163 36.9166 240.761 36.9166C241.596 36.9166 242.409 36.9621 243.204 37.0243C262.097 38.5825 269.191 58.396 269.191 87.5546C269.191 115.976 270.142 134.367 271.545 149.722C272.598 161.151 276.112 168.342 284.197 168.342C287.71 168.342 293.352 167.455 297.234 164.421C307.231 156.614 317.292 146.927 327 136.474V183.694C325.542 185.054 324.421 186.023 323.696 186.539C322.11 187.668 320.536 188.807 318.966 189.943L318.954 189.952C304.415 200.472 290.257 210.716 270.279 210.716C241.006 210.716 220.283 196.054 217.684 147.181C217.258 139.142 217.32 130.476 217.915 121.201C178.473 206.472 145.148 243.513 110.535 251.706C105.365 252.929 100.167 253.517 94.9166 253.517C63.5017 253.517 36.6711 226.87 43.1478 172.871C43.8452 167.069 44.9202 160.961 46.4172 154.525C46.5727 153.895 47.1013 151.628 47.9231 148.097C48.4739 145.727 49.1624 142.788 49.9709 139.382C50.6506 136.498 51.4013 133.344 52.2098 129.975C51.0415 130.708 49.8554 131.28 48.656 131.777C29.1008 153.613 8.78851 175.225 0 183.47V136.217Z" fill="#420E31" fill-opacity="0.25"/>
</svg>
